<?xml version="1.0" encoding="utf-8"?>
<!-- Generator: Adobe Illustrator 24.2.3, SVG Export Plug-In . SVG Version: 6.00 Build 0)  -->
<svg version="1.1" id="레이어_1" xmlns="http://www.w3.org/2000/svg" xmlns:xlink="http://www.w3.org/1999/xlink" x="0px"
	 y="0px" viewBox="0 0 114.9 34.02" style="enable-background:new 0 0 114.9 34.02;" xml:space="preserve">
<style type="text/css">
	.st0{fill:url(#SVGID_1_);}
	.st1{fill:url(#SVGID_2_);}
	.st2{fill:url(#SVGID_3_);}
	.st3{fill:url(#SVGID_4_);}
	.st4{fill:url(#SVGID_5_);}
	.st5{fill:url(#SVGID_6_);}
	.st6{fill:url(#SVGID_7_);}
	.st7{fill:url(#SVGID_8_);}
	.st8{fill:url(#SVGID_9_);}
	.st9{fill:url(#SVGID_10_);}
	.st10{fill:url(#SVGID_11_);}
	.st11{fill:url(#SVGID_12_);}
	.st12{fill:url(#SVGID_13_);}
	.st13{fill:url(#SVGID_14_);}
	.st14{fill:url(#SVGID_15_);}
</style>
<linearGradient id="SVGID_1_" gradientUnits="userSpaceOnUse" x1="40.4414" y1="-23.4697" x2="74.4571" y2="-23.4697" gradientTransform="matrix(6.123234e-17 -1 1 6.123234e-17 40.4414 74.4571)">
	<stop  offset="0" style="stop-color:#FFF100"/>
	<stop  offset="1" style="stop-color:#E60012"/>
</linearGradient>
<path class="st0" d="M28.32,6.44c0.22,0.01,0.44,0.02,0.66,0.02c0.35,0,0.58-0.02,0.7-0.07c0.12-0.05,0.18-0.13,0.18-0.24
	c0-0.11-0.05-0.19-0.14-0.24c-0.09-0.05-0.19-0.07-0.3-0.07c-0.43,0-0.96,0.04-1.59,0.1s-1.43,0.1-2.39,0.1
	c-0.21,0-0.57,0.01-1.09,0.02c-0.52,0.01-1.13,0.05-1.84,0.12c-0.71,0.06-1.48,0.15-2.32,0.27c-0.83,0.12-1.67,0.28-2.52,0.47
	c-0.85,0.2-1.66,0.44-2.44,0.73c-0.78,0.29-1.47,0.65-2.08,1.06c-0.6,0.41-1.08,0.89-1.45,1.44s-0.54,1.17-0.54,1.89
	c0,0.39,0.07,0.75,0.22,1.09c0.15,0.34,0.35,0.62,0.62,0.86c0.27,0.24,0.58,0.43,0.94,0.57c0.36,0.14,0.76,0.21,1.19,0.21
	c0.57,0,1.1-0.09,1.57-0.27c0.48-0.18,0.88-0.43,1.23-0.73c0.34-0.31,0.61-0.67,0.81-1.09c0.2-0.42,0.29-0.86,0.29-1.32
	c0-0.24-0.03-0.46-0.08-0.68c-0.06-0.22-0.13-0.41-0.21-0.58l-0.21,0.06c0.08,0.18,0.15,0.37,0.19,0.57
	c0.04,0.2,0.06,0.39,0.06,0.59c0,0.43-0.08,0.83-0.24,1.18c-0.16,0.36-0.38,0.67-0.65,0.93c-0.27,0.27-0.58,0.47-0.91,0.62
	c-0.34,0.15-0.69,0.22-1.05,0.22c-0.67,0-1.17-0.19-1.51-0.58c-0.34-0.38-0.5-0.93-0.5-1.62c0-0.89,0.25-1.66,0.77-2.29
	s1.18-1.16,2-1.58c0.82-0.43,1.75-0.77,2.79-1.02c1.03-0.25,2.08-0.44,3.13-0.58c1.05-0.13,2.06-0.22,3.03-0.25
	c0.96-0.03,1.79-0.05,2.47-0.05v0.04c-1.15,0.39-2.15,0.87-3.02,1.43c-0.87,0.56-1.65,1.18-2.34,1.88
	c-0.69,0.69-1.31,1.44-1.87,2.25c-0.55,0.81-1.08,1.66-1.59,2.56c-0.51,0.89-1.02,1.82-1.52,2.79c-0.5,0.96-1.05,1.94-1.63,2.94
	c-0.56,0.13-1.22,0.23-1.98,0.32c-0.76,0.09-1.55,0.2-2.37,0.32c-0.82,0.13-1.63,0.28-2.43,0.45c-0.8,0.17-1.52,0.41-2.16,0.69
	c-0.64,0.29-1.15,0.65-1.54,1.09c-0.39,0.44-0.59,0.97-0.59,1.6c0,0.46,0.1,0.85,0.31,1.17c0.21,0.32,0.48,0.58,0.82,0.78
	s0.71,0.34,1.11,0.43c0.41,0.09,0.8,0.14,1.19,0.14c1.19,0,2.26-0.2,3.23-0.61c0.96-0.41,1.84-0.94,2.63-1.61s1.51-1.44,2.17-2.32
	c0.66-0.87,1.26-1.77,1.82-2.69c0.8-0.22,1.48-0.47,2.06-0.73c0.58-0.27,1.11-0.57,1.59-0.91c0.48-0.34,0.94-0.74,1.36-1.21
	c0.43-0.46,0.88-0.99,1.35-1.59l-0.15-0.15c-0.48,0.59-0.92,1.1-1.34,1.54c-0.42,0.44-0.86,0.83-1.31,1.16s-0.95,0.63-1.5,0.89
	c-0.55,0.26-1.18,0.49-1.91,0.7l-0.04-0.04l-0.02,0.02c0.38-0.53,0.79-1.2,1.23-2.01c0.44-0.81,0.91-1.68,1.4-2.61
	c0.5-0.93,1.03-1.87,1.59-2.83c0.57-0.96,1.16-1.84,1.79-2.64c0.63-0.8,1.29-1.49,1.98-2.05s1.42-0.93,2.19-1.08
	C27.89,6.42,28.11,6.43,28.32,6.44z M14.18,21.74c-0.29,0.48-0.6,0.96-0.92,1.45c-0.32,0.48-0.66,0.95-1.03,1.39
	s-0.75,0.85-1.17,1.19c-0.42,0.35-0.88,0.63-1.37,0.84c-0.5,0.21-1.03,0.31-1.6,0.31c-0.67,0-1.21-0.19-1.62-0.57
	c-0.41-0.38-0.62-0.9-0.62-1.57c0-0.63,0.18-1.16,0.53-1.6c0.36-0.44,0.81-0.8,1.37-1.09c0.56-0.29,1.19-0.52,1.89-0.69
	s1.39-0.32,2.06-0.43c0.68-0.11,1.31-0.21,1.91-0.29c0.59-0.08,1.07-0.17,1.42-0.27C14.76,20.81,14.48,21.25,14.18,21.74z"/>
<linearGradient id="SVGID_2_" gradientUnits="userSpaceOnUse" x1="40.4414" y1="-5.5476" x2="74.4571" y2="-5.5476" gradientTransform="matrix(6.123234e-17 -1 1 6.123234e-17 40.4414 74.4571)">
	<stop  offset="0" style="stop-color:#FFF100"/>
	<stop  offset="1" style="stop-color:#E60012"/>
</linearGradient>
<path class="st1" d="M39.45,6.49c0.36-0.27,0.81-0.4,1.35-0.4c0.46,0,0.83,0.16,1.12,0.47c0.29,0.31,0.43,0.74,0.43,1.27
	c0,0.39-0.05,0.74-0.16,1.05c-0.1,0.31-0.26,0.62-0.45,0.94c0.31,0,0.6-0.03,0.89-0.09c0.29-0.06,0.54-0.16,0.75-0.29
	c0.22-0.13,0.39-0.31,0.52-0.54c0.13-0.23,0.2-0.51,0.2-0.85c0-0.41-0.09-0.74-0.26-1.02s-0.4-0.5-0.68-0.68
	c-0.28-0.18-0.6-0.31-0.97-0.39c-0.37-0.08-0.75-0.12-1.14-0.12c-0.92,0-1.72,0.19-2.38,0.57c-0.66,0.38-1.22,0.89-1.66,1.54
	c-0.44,0.65-0.77,1.41-1,2.27c-0.22,0.87-0.36,1.78-0.4,2.75c-0.03,0.53-0.07,1.1-0.13,1.71s-0.15,1.21-0.28,1.81
	c-0.13,0.6-0.31,1.17-0.54,1.72c-0.23,0.54-0.53,1.03-0.89,1.46s-0.8,0.77-1.31,1.02c-0.51,0.25-1.11,0.38-1.81,0.38
	c-0.39,0-0.8-0.05-1.24-0.14c-0.43-0.09-0.83-0.23-1.18-0.43s-0.65-0.46-0.88-0.79c-0.23-0.33-0.35-0.73-0.35-1.21
	c0-0.2,0.01-0.39,0.03-0.59c0.02-0.2,0.07-0.39,0.14-0.59c0.35-0.01,0.66-0.12,0.93-0.32c0.27-0.2,0.41-0.49,0.41-0.87
	c0-0.31-0.12-0.54-0.35-0.7s-0.49-0.24-0.77-0.24c-0.29,0-0.55,0.06-0.77,0.18c-0.22,0.12-0.4,0.28-0.54,0.48
	c-0.15,0.2-0.25,0.43-0.32,0.68s-0.1,0.51-0.1,0.78c0,0.67,0.14,1.26,0.42,1.76c0.28,0.5,0.65,0.92,1.1,1.26
	c0.45,0.34,0.98,0.58,1.56,0.74c0.59,0.16,1.18,0.24,1.78,0.24c1.23,0,2.26-0.2,3.09-0.61s1.51-0.91,2.02-1.52
	c0.52-0.61,0.9-1.26,1.15-1.96c0.25-0.7,0.41-1.35,0.48-1.95c0.08-0.68,0.15-1.38,0.21-2.1c0.06-0.71,0.13-1.41,0.21-2.09
	c0.08-0.68,0.19-1.32,0.31-1.93s0.31-1.14,0.54-1.59S39.1,6.75,39.45,6.49z"/>
<linearGradient id="SVGID_3_" gradientUnits="userSpaceOnUse" x1="40.4414" y1="1.6736" x2="74.4571" y2="1.6736" gradientTransform="matrix(6.123234e-17 -1 1 6.123234e-17 40.4414 74.4571)">
	<stop  offset="0" style="stop-color:#FFF100"/>
	<stop  offset="1" style="stop-color:#E60012"/>
</linearGradient>
<path class="st2" d="M43.61,18.79c-0.66,0.63-1.27,1.12-1.84,1.48c-0.57,0.36-1.03,0.53-1.38,0.53c-0.18,0-0.32-0.06-0.42-0.17
	c-0.1-0.11-0.15-0.26-0.15-0.44c0-0.21,0.06-0.45,0.18-0.73c0.12-0.28,0.31-0.65,0.57-1.12c0.26-0.47,0.6-1.05,1.04-1.76
	c0.43-0.71,0.96-1.58,1.59-2.61h2.7l0.19-0.38h-2.66l1.74-2.72l-2.26,0.08l-1.57,2.64h-1.61l-0.15,0.38h1.57
	c-0.42,0.73-0.81,1.37-1.17,1.93s-0.68,1.07-0.95,1.53c-0.27,0.46-0.49,0.88-0.64,1.27c-0.15,0.38-0.23,0.76-0.23,1.12
	c0,0.5,0.17,0.86,0.5,1.06c0.34,0.2,0.73,0.3,1.17,0.3c0.32,0,0.65-0.06,0.98-0.19c0.34-0.13,0.68-0.3,1.03-0.51
	c0.35-0.22,0.69-0.47,1.04-0.75c0.34-0.29,0.67-0.59,1-0.91c0.19-0.19,0.37-0.39,0.55-0.58c0.03-0.13,0.06-0.26,0.1-0.4
	C44.21,18.18,43.9,18.51,43.61,18.79z"/>
<linearGradient id="SVGID_4_" gradientUnits="userSpaceOnUse" x1="40.4414" y1="9.2941" x2="74.4571" y2="9.2941" gradientTransform="matrix(6.123234e-17 -1 1 6.123234e-17 40.4414 74.4571)">
	<stop  offset="0" style="stop-color:#FFF100"/>
	<stop  offset="1" style="stop-color:#E60012"/>
</linearGradient>
<path class="st3" d="M54.75,18.66c-0.63,0.64-1.23,1.16-1.8,1.55s-1.03,0.59-1.36,0.59c-0.35,0-0.52-0.17-0.52-0.52
	c0-0.25,0.07-0.56,0.22-0.91s0.34-0.74,0.58-1.15s0.5-0.84,0.79-1.28c0.29-0.44,0.57-0.87,0.85-1.28c0.28-0.41,0.54-0.8,0.78-1.15
	c0.24-0.36,0.42-0.66,0.54-0.91l-2.18,0.13l-0.52,0.84c-0.18-0.45-0.41-0.78-0.69-0.98c-0.28-0.21-0.66-0.31-1.15-0.31
	c-0.64,0-1.32,0.17-2.02,0.51c-0.71,0.34-1.35,0.79-1.92,1.34c-0.57,0.55-1.05,1.17-1.43,1.85c-0.16,0.29-0.28,0.58-0.37,0.87
	c0.18-0.2,0.36-0.4,0.56-0.61c0.53-0.6,1.03-1.21,1.49-1.82l0.13,0.1c-0.32,0.42-0.73,0.93-1.22,1.53c-0.33,0.4-0.69,0.8-1.06,1.2
	c-0.06,0.26-0.09,0.53-0.09,0.79c0,0.29,0.04,0.58,0.1,0.85s0.18,0.52,0.32,0.73c0.15,0.22,0.34,0.39,0.58,0.51
	c0.24,0.13,0.52,0.19,0.86,0.19c0.63,0,1.22-0.17,1.76-0.5c0.54-0.34,1.03-0.75,1.47-1.24h0.04c-0.03,0.06-0.05,0.13-0.06,0.23
	c-0.01,0.1-0.02,0.2-0.02,0.31c0,0.34,0.12,0.62,0.37,0.85c0.24,0.23,0.59,0.35,1.04,0.35c0.64,0,1.29-0.21,1.94-0.64
	c0.63-0.42,1.28-0.95,1.94-1.6c0.16-0.27,0.32-0.55,0.49-0.82C55.01,18.38,54.88,18.53,54.75,18.66z M50.1,18.19
	c-0.27,0.43-0.56,0.81-0.86,1.16c-0.3,0.35-0.61,0.64-0.93,0.87c-0.32,0.23-0.63,0.35-0.92,0.37c-0.43,0-0.72-0.15-0.85-0.45
	c-0.13-0.3-0.2-0.65-0.2-1.06c0-0.28,0.06-0.61,0.17-1c0.11-0.38,0.27-0.79,0.46-1.21c0.2-0.42,0.43-0.83,0.7-1.23
	c0.27-0.4,0.56-0.76,0.86-1.08c0.3-0.32,0.61-0.58,0.94-0.78c0.33-0.2,0.65-0.29,0.98-0.29c0.41,0,0.68,0.1,0.82,0.31
	c0.14,0.21,0.21,0.5,0.21,0.88c0,0.27-0.06,0.59-0.18,0.97c-0.12,0.38-0.28,0.79-0.48,1.23C50.61,17.34,50.37,17.77,50.1,18.19z"/>
<linearGradient id="SVGID_5_" gradientUnits="userSpaceOnUse" x1="40.4414" y1="5.116" x2="74.458" y2="5.116" gradientTransform="matrix(6.123234e-17 -1 1 6.123234e-17 40.4414 74.4571)">
	<stop  offset="0" style="stop-color:#FFF100"/>
	<stop  offset="1" style="stop-color:#E60012"/>
</linearGradient>
<path class="st4" d="M46.7,15.5l-0.13-0.1c-0.46,0.61-0.96,1.22-1.49,1.82c-0.19,0.22-0.38,0.42-0.56,0.61
	c-0.04,0.13-0.08,0.26-0.1,0.4c0.37-0.4,0.73-0.8,1.06-1.2C45.97,16.43,46.37,15.92,46.7,15.5z"/>
<linearGradient id="SVGID_6_" gradientUnits="userSpaceOnUse" x1="40.4414" y1="18.4442" x2="74.4571" y2="18.4442" gradientTransform="matrix(6.123234e-17 -1 1 6.123234e-17 40.4414 74.4571)">
	<stop  offset="0" style="stop-color:#FFF100"/>
	<stop  offset="1" style="stop-color:#E60012"/>
</linearGradient>
<path class="st5" d="M64.23,16.55c-0.19,0.08-0.38,0.13-0.58,0.13c-0.6,0-0.9-0.3-0.9-0.9c0-0.47,0.11-0.92,0.33-1.33
	c0.22-0.41,0.47-0.81,0.73-1.18c-0.39,0.01-0.72,0.03-0.97,0.04c-0.26,0.01-0.48,0.05-0.66,0.09s-0.34,0.12-0.47,0.21
	s-0.28,0.21-0.43,0.37c-0.1,0.1-0.25,0.21-0.46,0.35c-0.21,0.13-0.47,0.32-0.78,0.58c-0.31,0.25-0.67,0.58-1.08,0.97
	c-0.41,0.4-0.88,0.93-1.42,1.58l-0.04-0.04l2.77-3.9l-2.39,0.08c-0.73,1.26-1.46,2.49-2.19,3.71c-0.19,0.31-0.37,0.63-0.55,0.94
	c0.14-0.14,0.27-0.28,0.41-0.43c0.27-0.31,0.53-0.61,0.79-0.91c0.25-0.3,0.48-0.58,0.69-0.84c0.21-0.26,0.38-0.47,0.5-0.64
	l0.15,0.08c-0.36,0.49-0.78,1.03-1.26,1.62c-0.47,0.59-1.05,1.23-1.72,1.9c-0.02,0.02-0.03,0.03-0.04,0.04
	c-0.38,0.64-0.76,1.27-1.13,1.91l2.12-0.06c0.31-0.57,0.65-1.16,1.04-1.77c0.38-0.61,0.8-1.2,1.26-1.77
	c0.45-0.57,0.95-1.12,1.48-1.64c0.53-0.52,1.09-0.97,1.68-1.36l0.04,0.04c-0.21,0.32-0.31,0.66-0.31,1.03c0,0.57,0.16,1.01,0.48,1.3
	s0.76,0.44,1.32,0.44c0.5,0,0.97-0.1,1.41-0.3c0.06-0.11,0.13-0.22,0.2-0.34C64.24,16.54,64.23,16.55,64.23,16.55z"/>
<linearGradient id="SVGID_7_" gradientUnits="userSpaceOnUse" x1="40.4414" y1="15.7275" x2="74.4571" y2="15.7275" gradientTransform="matrix(6.123234e-17 -1 1 6.123234e-17 40.4414 74.4571)">
	<stop  offset="0" style="stop-color:#FFF100"/>
	<stop  offset="1" style="stop-color:#E60012"/>
</linearGradient>
<path class="st6" d="M56.42,17.12c0.48-0.59,0.89-1.14,1.26-1.62l-0.15-0.08c-0.13,0.17-0.29,0.38-0.5,0.64
	c-0.21,0.26-0.44,0.54-0.69,0.84c-0.25,0.3-0.51,0.6-0.79,0.91c-0.14,0.16-0.27,0.29-0.41,0.43c-0.16,0.27-0.32,0.55-0.49,0.82
	c0.02-0.01,0.03-0.03,0.04-0.04C55.37,18.35,55.95,17.72,56.42,17.12z"/>
<linearGradient id="SVGID_8_" gradientUnits="userSpaceOnUse" x1="40.4414" y1="24.7389" x2="74.4571" y2="24.7389" gradientTransform="matrix(6.123234e-17 -1 1 6.123234e-17 40.4414 74.4571)">
	<stop  offset="0" style="stop-color:#FFF100"/>
	<stop  offset="1" style="stop-color:#E60012"/>
</linearGradient>
<path class="st7" d="M73.39,19.01c-0.59,0.54-1.23,1.02-1.91,1.44c-0.68,0.42-1.41,0.74-2.19,0.96c0.81-1.3,1.58-2.61,2.31-3.92
	s1.47-2.61,2.22-3.9l-2.14,0.13l-0.48,0.9c-0.17-0.52-0.41-0.87-0.71-1.07s-0.73-0.29-1.26-0.29c-0.68,0-1.38,0.18-2.08,0.54
	c-0.7,0.36-1.33,0.83-1.89,1.39c-0.4,0.41-0.73,0.86-1.03,1.35c0.18-0.08,0.36-0.18,0.52-0.31c0.17-0.13,0.33-0.26,0.48-0.41
	c0.15-0.15,0.29-0.28,0.42-0.41l0.08,0.1c-0.39,0.49-0.85,0.89-1.38,1.19c-0.11,0.06-0.22,0.11-0.33,0.16
	c-0.04,0.08-0.1,0.15-0.14,0.23c-0.35,0.71-0.52,1.4-0.52,2.09c0,0.53,0.15,1,0.45,1.39c0.3,0.4,0.74,0.6,1.31,0.6
	c0.38,0,0.74-0.06,1.08-0.18c0.34-0.12,0.66-0.27,0.96-0.46c0.3-0.19,0.59-0.41,0.86-0.65c0.27-0.24,0.52-0.5,0.74-0.77l0.04,0.04
	c-0.32,0.46-0.66,0.99-1.03,1.57c-0.36,0.59-0.75,1.18-1.16,1.77c-0.41,0.59-0.85,1.17-1.32,1.74c-0.47,0.57-0.96,1.07-1.49,1.52
	s-1.08,0.8-1.67,1.07c-0.59,0.27-1.21,0.4-1.87,0.4c-0.36,0-0.69-0.06-0.97-0.18s-0.53-0.28-0.73-0.49
	c-0.2-0.21-0.36-0.46-0.47-0.74c-0.11-0.29-0.17-0.6-0.17-0.93c0-0.7,0.19-1.24,0.56-1.64s0.93-0.59,1.67-0.61V22.5
	c-0.14-0.01-0.33-0.04-0.59-0.06c-0.25-0.03-0.44-0.04-0.57-0.04c-0.35,0-0.7,0.05-1.04,0.16c-0.34,0.1-0.65,0.26-0.91,0.46
	c-0.27,0.2-0.48,0.45-0.64,0.75c-0.16,0.3-0.24,0.64-0.24,1.02c0,0.5,0.1,0.93,0.31,1.27c0.21,0.34,0.49,0.62,0.85,0.84
	c0.36,0.22,0.77,0.37,1.23,0.46s0.95,0.14,1.47,0.14c1.01,0,1.95-0.14,2.83-0.42c0.88-0.28,1.7-0.67,2.45-1.17
	c0.75-0.5,1.45-1.11,2.09-1.82c0.64-0.71,1.21-1.5,1.71-2.37c0.8-0.22,1.55-0.55,2.26-0.98c0.71-0.43,1.38-0.92,2.01-1.48
	c0.14-0.13,0.27-0.26,0.41-0.39c0.12-0.2,0.24-0.4,0.36-0.6C73.92,18.51,73.66,18.77,73.39,19.01z M68.33,19.35
	c-0.29,0.33-0.59,0.6-0.9,0.81c-0.31,0.21-0.61,0.31-0.9,0.31c-0.47,0-0.78-0.14-0.92-0.42c-0.14-0.28-0.21-0.62-0.21-1.03
	c0-0.46,0.13-1.01,0.38-1.63c0.25-0.63,0.58-1.23,0.97-1.81c0.4-0.58,0.85-1.07,1.35-1.47c0.5-0.4,1.01-0.6,1.53-0.6
	c0.2,0,0.35,0.04,0.46,0.12c0.11,0.08,0.2,0.18,0.25,0.3c0.06,0.13,0.09,0.26,0.12,0.41c0.02,0.15,0.03,0.3,0.03,0.45
	c0,0.27-0.06,0.59-0.17,0.97c-0.11,0.38-0.27,0.79-0.46,1.21c-0.2,0.42-0.43,0.84-0.69,1.26C68.9,18.64,68.62,19.02,68.33,19.35z"/>
<linearGradient id="SVGID_9_" gradientUnits="userSpaceOnUse" x1="40.4414" y1="24.4541" x2="74.4571" y2="24.4541" gradientTransform="matrix(6.123234e-17 -1 1 6.123234e-17 40.4414 74.4571)">
	<stop  offset="0" style="stop-color:#FFF100"/>
	<stop  offset="1" style="stop-color:#E60012"/>
</linearGradient>
<path class="st8" d="M65.75,15.52l-0.08-0.1c-0.13,0.13-0.27,0.26-0.42,0.41c-0.15,0.15-0.31,0.28-0.48,0.41
	c-0.16,0.12-0.34,0.22-0.52,0.31c-0.07,0.11-0.14,0.22-0.2,0.34c0.11-0.05,0.22-0.1,0.33-0.16C64.9,16.41,65.36,16.01,65.75,15.52z"
	/>
<linearGradient id="SVGID_10_" gradientUnits="userSpaceOnUse" x1="40.4414" y1="37.453" x2="74.4571" y2="37.453" gradientTransform="matrix(6.123234e-17 -1 1 6.123234e-17 40.4414 74.4571)">
	<stop  offset="0" style="stop-color:#FFF100"/>
	<stop  offset="1" style="stop-color:#E60012"/>
</linearGradient>
<path class="st9" d="M82.69,16.67c-0.6,0-0.9-0.3-0.9-0.9c0-0.47,0.11-0.92,0.33-1.33c0.22-0.41,0.47-0.81,0.73-1.18
	c-0.39,0.01-0.72,0.03-0.97,0.04c-0.26,0.01-0.48,0.05-0.66,0.09s-0.34,0.12-0.47,0.21s-0.28,0.21-0.43,0.37
	c-0.1,0.1-0.25,0.21-0.46,0.35c-0.21,0.13-0.47,0.32-0.78,0.58c-0.31,0.25-0.67,0.58-1.08,0.97c-0.41,0.4-0.88,0.93-1.42,1.58
	l-0.04-0.04l2.77-3.9l-2.39,0.08c-0.73,1.26-1.46,2.49-2.19,3.71c-0.19,0.32-0.37,0.64-0.56,0.95c0.31-0.32,0.61-0.64,0.9-0.99
	c0.52-0.62,1.02-1.25,1.5-1.88l0.13,0.06c-0.46,0.67-0.97,1.33-1.52,1.98c-0.43,0.5-0.89,0.97-1.36,1.42
	c-0.42,0.7-0.84,1.4-1.25,2.11l2.12-0.06c0.31-0.57,0.65-1.16,1.04-1.77c0.38-0.61,0.8-1.2,1.26-1.77c0.45-0.57,0.95-1.12,1.48-1.64
	c0.53-0.52,1.09-0.97,1.68-1.36l0.04,0.04c-0.21,0.32-0.31,0.66-0.31,1.03c0,0.57,0.16,1.01,0.48,1.3s0.76,0.44,1.32,0.44
	c0.47,0,0.91-0.09,1.33-0.26c0.07-0.12,0.16-0.24,0.23-0.36C83.05,16.63,82.87,16.67,82.69,16.67z"/>
<linearGradient id="SVGID_11_" gradientUnits="userSpaceOnUse" x1="40.4414" y1="34.8107" x2="74.4571" y2="34.8107" gradientTransform="matrix(6.123234e-17 -1 1 6.123234e-17 40.4414 74.4571)">
	<stop  offset="0" style="stop-color:#FFF100"/>
	<stop  offset="1" style="stop-color:#E60012"/>
</linearGradient>
<path class="st10" d="M75.17,17.44c0.55-0.65,1.06-1.31,1.52-1.98l-0.13-0.06c-0.48,0.63-0.97,1.25-1.5,1.88
	c-0.29,0.34-0.59,0.67-0.9,0.99c-0.12,0.2-0.24,0.4-0.36,0.6C74.29,18.41,74.74,17.94,75.17,17.44z"/>
<linearGradient id="SVGID_12_" gradientUnits="userSpaceOnUse" x1="40.4414" y1="47.1928" x2="74.4571" y2="47.1928" gradientTransform="matrix(6.123234e-17 -1 1 6.123234e-17 40.4414 74.4571)">
	<stop  offset="0" style="stop-color:#FFF100"/>
	<stop  offset="1" style="stop-color:#E60012"/>
</linearGradient>
<path class="st11" d="M92.81,18.66c-0.63,0.64-1.23,1.16-1.8,1.55s-1.03,0.59-1.36,0.59c-0.35,0-0.52-0.17-0.52-0.52
	c0-0.25,0.07-0.56,0.22-0.91s0.34-0.74,0.58-1.15s0.5-0.84,0.79-1.28c0.29-0.44,0.57-0.87,0.85-1.28c0.28-0.41,0.54-0.8,0.78-1.15
	c0.24-0.36,0.42-0.66,0.54-0.91l-2.18,0.13l-0.52,0.84c-0.18-0.45-0.41-0.78-0.69-0.98c-0.28-0.21-0.66-0.31-1.15-0.31
	c-0.64,0-1.32,0.17-2.02,0.51c-0.71,0.34-1.34,0.79-1.92,1.34c-0.45,0.44-0.83,0.93-1.16,1.45c0.01-0.01,0.03-0.01,0.04-0.01
	c0.19-0.08,0.37-0.19,0.53-0.31c0.17-0.13,0.33-0.26,0.48-0.41c0.15-0.15,0.29-0.28,0.42-0.41l0.08,0.1
	c-0.39,0.49-0.85,0.89-1.38,1.19c-0.13,0.08-0.27,0.14-0.41,0.2c-0.01,0.02-0.02,0.03-0.03,0.05c-0.38,0.69-0.57,1.37-0.57,2.05
	c0,0.29,0.04,0.58,0.1,0.85c0.07,0.27,0.18,0.52,0.33,0.73s0.34,0.39,0.58,0.51c0.24,0.13,0.52,0.19,0.86,0.19
	c0.63,0,1.22-0.17,1.76-0.5c0.54-0.34,1.03-0.75,1.47-1.24h0.04c-0.03,0.06-0.05,0.13-0.06,0.23c-0.01,0.1-0.02,0.2-0.02,0.31
	c0,0.34,0.12,0.62,0.37,0.85c0.24,0.23,0.59,0.35,1.04,0.35c0.64,0,1.29-0.21,1.94-0.64c0.52-0.34,1.05-0.78,1.58-1.28
	c0.15-0.25,0.31-0.5,0.46-0.74C92.83,18.65,92.82,18.66,92.81,18.66z M88.17,18.19c-0.27,0.43-0.56,0.81-0.86,1.16
	c-0.3,0.35-0.61,0.64-0.93,0.87s-0.63,0.35-0.92,0.37c-0.43,0-0.72-0.15-0.85-0.45c-0.13-0.3-0.2-0.65-0.2-1.06
	c0-0.28,0.06-0.61,0.17-1c0.11-0.38,0.27-0.79,0.46-1.21c0.2-0.42,0.43-0.83,0.7-1.23s0.56-0.76,0.86-1.08
	c0.3-0.32,0.61-0.58,0.94-0.78c0.33-0.2,0.65-0.29,0.97-0.29c0.41,0,0.68,0.1,0.82,0.31c0.14,0.21,0.21,0.5,0.21,0.88
	c0,0.27-0.06,0.59-0.18,0.97c-0.12,0.38-0.28,0.79-0.48,1.23C88.68,17.34,88.44,17.77,88.17,18.19z"/>
<linearGradient id="SVGID_13_" gradientUnits="userSpaceOnUse" x1="40.4414" y1="43.4468" x2="74.4571" y2="43.4468" gradientTransform="matrix(6.123234e-17 -1 1 6.123234e-17 40.4414 74.4571)">
	<stop  offset="0" style="stop-color:#FFF100"/>
	<stop  offset="1" style="stop-color:#E60012"/>
</linearGradient>
<path class="st12" d="M84.78,15.52l-0.08-0.1c-0.13,0.13-0.27,0.26-0.42,0.41c-0.15,0.15-0.31,0.28-0.48,0.41
	c-0.17,0.13-0.35,0.23-0.53,0.31c-0.01,0.01-0.03,0.01-0.04,0.01c-0.08,0.12-0.16,0.23-0.23,0.36c0.14-0.06,0.28-0.13,0.41-0.2
	C83.93,16.41,84.39,16.01,84.78,15.52z"/>
<linearGradient id="SVGID_14_" gradientUnits="userSpaceOnUse" x1="40.4414" y1="60.6611" x2="74.4571" y2="60.6611" gradientTransform="matrix(6.123234e-17 -1 1 6.123234e-17 40.4414 74.4571)">
	<stop  offset="0" style="stop-color:#FFF100"/>
	<stop  offset="1" style="stop-color:#E60012"/>
</linearGradient>
<path class="st13" d="M109.32,17.17c-0.51,0.59-1.03,1.16-1.56,1.69c-1.3,1.3-2.24,1.95-2.81,1.95c-0.15,0-0.27-0.05-0.33-0.16
	c-0.07-0.1-0.11-0.23-0.11-0.39c0-0.38,0.15-0.8,0.46-1.26c0.31-0.46,0.65-0.94,1.03-1.43c0.38-0.49,0.72-0.98,1.03-1.48
	s0.46-0.98,0.46-1.46c0-0.36-0.14-0.68-0.41-0.96c-0.27-0.28-0.63-0.42-1.08-0.42c-0.46,0-0.93,0.14-1.39,0.41
	c-0.47,0.27-0.92,0.6-1.34,1c-0.43,0.39-0.82,0.81-1.18,1.25c-0.36,0.44-0.68,0.83-0.94,1.16l-0.04-0.04
	c0.11-0.17,0.23-0.36,0.37-0.58c0.13-0.22,0.25-0.43,0.36-0.65s0.19-0.44,0.26-0.66c0.07-0.22,0.11-0.43,0.11-0.63
	c0-0.42-0.14-0.73-0.41-0.94c-0.27-0.21-0.6-0.31-1-0.31c-0.56,0-1.09,0.15-1.58,0.44s-0.96,0.65-1.39,1.07
	c-0.43,0.42-0.84,0.86-1.21,1.32c-0.37,0.46-0.7,0.86-1,1.19l-0.04-0.04l2.79-3.81l-2.45,0.13c-0.73,1.27-1.47,2.52-2.22,3.74
	c-0.28,0.45-0.56,0.9-0.84,1.35c0.26-0.26,0.52-0.54,0.79-0.84c0.27-0.31,0.53-0.61,0.79-0.91c0.25-0.3,0.48-0.58,0.69-0.84
	c0.21-0.26,0.38-0.47,0.5-0.64l0.15,0.08c-0.36,0.49-0.78,1.03-1.26,1.62c-0.47,0.59-1.05,1.23-1.72,1.9
	c-0.13,0.13-0.27,0.24-0.4,0.37c-0.33,0.53-0.65,1.05-0.98,1.58l2.12-0.08c0.17-0.29,0.4-0.67,0.69-1.13
	c0.29-0.46,0.63-0.96,1.01-1.49c0.38-0.53,0.78-1.06,1.21-1.59c0.43-0.53,0.85-1.01,1.27-1.45c0.42-0.43,0.82-0.79,1.21-1.06
	c0.38-0.27,0.72-0.41,1.02-0.41c0.21,0,0.36,0.07,0.46,0.21c0.1,0.14,0.15,0.29,0.15,0.46c0,0.25-0.11,0.59-0.33,1.03
	c-0.22,0.43-0.5,0.93-0.86,1.5s-0.76,1.19-1.22,1.87s-0.92,1.39-1.39,2.15l2.22-0.08c0.17-0.29,0.39-0.67,0.68-1.13
	c0.29-0.46,0.62-0.96,0.99-1.49c0.37-0.53,0.76-1.06,1.17-1.59c0.41-0.53,0.83-1.01,1.25-1.45c0.42-0.43,0.82-0.79,1.21-1.06
	c0.38-0.27,0.72-0.41,1.02-0.41c0.15,0,0.29,0.05,0.4,0.16c0.11,0.1,0.17,0.25,0.17,0.45c0,0.27-0.15,0.61-0.46,1.04
	s-0.65,0.88-1.03,1.37c-0.38,0.49-0.72,0.99-1.03,1.51c-0.31,0.52-0.46,1-0.46,1.45c0,0.42,0.14,0.77,0.41,1.04s0.65,0.41,1.14,0.41
	c0.25,0,0.5-0.04,0.74-0.12c0.24-0.08,0.5-0.2,0.78-0.37c0.27-0.17,0.57-0.39,0.89-0.66s0.68-0.6,1.07-1
	c0.29-0.29,0.58-0.6,0.87-0.92c0.29-0.32,0.55-0.63,0.81-0.93c0.25-0.3,0.49-0.58,0.7-0.85c0.22-0.27,0.41-0.5,0.58-0.71l-0.17-0.08
	C110.27,16.03,109.83,16.57,109.32,17.17z"/>
<linearGradient id="SVGID_15_" gradientUnits="userSpaceOnUse" x1="40.4414" y1="53.6171" x2="74.4571" y2="53.6171" gradientTransform="matrix(6.123234e-17 -1 1 6.123234e-17 40.4414 74.4571)">
	<stop  offset="0" style="stop-color:#FFF100"/>
	<stop  offset="1" style="stop-color:#E60012"/>
</linearGradient>
<path class="st14" d="M94.49,17.12c0.48-0.59,0.89-1.14,1.26-1.62l-0.15-0.08c-0.13,0.17-0.29,0.38-0.5,0.64
	c-0.21,0.26-0.44,0.54-0.69,0.84c-0.25,0.3-0.51,0.6-0.79,0.91c-0.27,0.3-0.53,0.58-0.79,0.84c-0.15,0.25-0.31,0.5-0.46,0.74
	c0.13-0.12,0.26-0.23,0.4-0.37C93.44,18.35,94.01,17.72,94.49,17.12z"/>
</svg>
